<?xml version="1.0" encoding="utf-8"?>
<svg viewBox="101.284 103.015 68.25 65.218" xmlns="http://www.w3.org/2000/svg">
  <g transform="matrix(0.010664, 0, 0, -0.010664, 96.484985, 172.498138)" fill="#000000" stroke="none" style="">
    <path d="M3400 6510 c-530 -51 -939 -202 -1089 -403 -59 -79 -72 -111 -84 -211 -6 -50 -11 -92 -12 -93 -1 -2 -370 -142 -821 -312 -996 -376 -899 -336 -924 -376 -20 -32 -20 -44 -20 -1744 l0 -1711 27 -30 c30 -33 -69 6 2340 -916 452 -172 833 -314 845 -314 23 0 3082 1148 3128 1174 14 7 33 29 42 47 17 32 18 134 18 1722 0 1797 2 1726 -46 1769 -11 9 -368 150 -794 313 -426 162 -805 307 -841 322 l-67 25 -4 97 c-3 77 -9 107 -30 153 -106 230 -483 405 -1018 473 -149 19 -517 27 -650 15z m605 -255 c344 -40 639 -137 776 -255 98 -84 99 -151 4 -238 -273 -250 -1114 -355 -1733 -216 -337 75 -582 213 -582 326 0 147 320 306 738 367 182 27 183 27 442 29 147 1 270 -3 355 -13z m-1783 -972 c5 -289 10 -313 82 -412 68 -92 232 -198 413 -267 278 -105 727 -163 1110 -144 633 33 1108 220 1240 488 28 57 28 58 33 307 4 215 7 250 20 247 8 -2 148 -54 310 -116 162 -63 440 -169 618 -237 177 -68 319 -126 315 -130 -9 -9 -2687 -1019 -2701 -1019 -8 0 -720 272 -2299 877 -238 91 -433 169 -433 172 0 6 1259 487 1282 490 3 1 8 -115 10 -256z m2611 -252 c-34 -54 -136 -127 -239 -170 -224 -94 -577 -161 -851 -161 l-83 0 0 268 0 269 148 6 c365 16 718 96 953 215 l94 48 3 -215 2 -215 -27 -45z m1765 -1732 l-3 -1542 -1350 -509 c-742 -279 -1374 -517 -1402 -528 l-53 -20 0 1543 0 1542 1398 527 c768 290 1400 527 1405 527 4 1 6 -693 5 -1540z"/>
  </g>
</svg>