<?xml version="1.0" standalone="no"?>
<!DOCTYPE svg PUBLIC "-//W3C//DTD SVG 20010904//EN"
 "http://www.w3.org/TR/2001/REC-SVG-20010904/DTD/svg10.dtd">
<svg version="1.0" xmlns="http://www.w3.org/2000/svg"
 width="150" height="150" viewBox="0 0 914.000000 830.000000"
 preserveAspectRatio="xMidYMid meet">
<metadata>
Created by potrace 1.16, written by Peter Selinger 2001-2019
</metadata>
<g transform="translate(0.000000,830.000000) scale(0.100000,-0.100000)"
fill="#000000" stroke="none">
<path d="M4285 7739 c-113 -14 -264 -57 -352 -99 -137 -65 -212 -152 -213
-246 l0 -41 -447 -168 c-247 -93 -467 -176 -490 -186 l-43 -18 0 -989 c0 -780
3 -992 13 -1000 16 -13 1765 -682 1783 -682 30 0 1750 653 1769 671 20 19 20
33 20 988 0 902 -1 970 -17 988 -10 10 -228 99 -488 198 l-470 180 0 39 c0
181 -194 307 -555 361 -110 16 -392 18 -510 4z m437 -140 c195 -21 361 -76
437 -144 52 -47 54 -79 9 -122 -176 -166 -752 -211 -1102 -86 -91 33 -163 78
-182 114 -13 26 -13 32 1 59 20 39 73 74 165 109 182 70 431 96 672 70z m-960
-751 c63 -106 234 -189 483 -234 140 -25 450 -25 590 0 199 36 341 94 428 174
71 67 81 94 87 253 l5 136 342 -131 c188 -72 339 -134 335 -138 -9 -8 -875
-336 -1027 -388 -61 -21 -150 -54 -200 -75 -49 -20 -129 -52 -178 -70 l-89
-34 -731 281 c-403 154 -745 285 -760 290 -15 6 -25 13 -22 16 3 3 162 65 353
137 l347 131 5 -151 c5 -141 7 -153 32 -197z m1438 198 l0 -124 -37 -32 c-97
-86 -331 -150 -544 -150 l-79 0 0 139 c0 162 -13 146 130 156 174 12 374 60
475 113 22 12 43 21 48 22 4 0 7 -56 7 -124z m978 -1103 l-3 -857 -775 -293
c-426 -160 -778 -292 -782 -293 -5 0 -8 386 -8 858 l0 857 773 292 c424 160
778 292 785 292 10 1 12 -173 10 -856z"/>
<path d="M700 2850 l0 -1440 3830 0 3830 0 0 1440 0 1440 -3830 0 -3830 0 0
-1440z m1363 519 c85 -12 154 -33 219 -65 57 -29 178 -140 178 -163 0 -9 -37
-56 -82 -104 -97 -102 -109 -105 -189 -51 -80 54 -132 75 -207 81 -75 6 -165
-12 -242 -50 -71 -34 -161 -130 -204 -217 -51 -104 -66 -166 -73 -302 -9 -183
23 -301 108 -393 71 -77 105 -90 234 -90 126 0 169 13 250 75 84 64 106 60
184 -35 34 -42 65 -83 68 -91 10 -27 -116 -133 -224 -187 -132 -67 -354 -95
-503 -63 -292 62 -480 305 -497 644 -18 352 125 673 382 857 115 82 226 127
373 150 111 17 137 17 225 4z m3991 -19 c120 -38 227 -142 261 -255 33 -108
11 -268 -49 -363 -29 -47 -96 -108 -141 -129 -19 -9 -35 -20 -35 -23 0 -3 17
-16 38 -28 102 -57 154 -150 160 -287 15 -341 -261 -583 -643 -562 -145 8
-233 41 -323 122 -97 87 -140 225 -122 385 18 155 91 267 220 334 l71 38 -53
51 c-82 79 -93 109 -93 252 0 117 1 123 34 190 115 234 413 356 675 275z
m-2639 -17 c71 -23 138 -57 182 -90 44 -34 99 -119 117 -182 33 -112 10 -290
-51 -404 -39 -72 -145 -176 -221 -216 l-64 -33 44 -42 c32 -31 54 -66 85 -141
154 -367 210 -505 205 -510 -3 -3 -82 -5 -176 -5 -144 0 -177 3 -211 19 -48
21 -44 14 -159 325 -47 126 -94 238 -105 250 -15 15 -37 21 -85 24 l-65 4 -6
-33 c-5 -32 -16 -118 -50 -414 -8 -71 -17 -140 -20 -152 -5 -23 -7 -23 -187
-23 l-181 0 7 58 c3 31 15 131 26 222 11 91 25 203 30 250 5 47 14 119 20 160
5 41 19 149 30 240 59 489 81 668 86 693 l6 29 341 -5 c308 -4 348 -6 402 -24z
m1735 10 c0 -10 -7 -72 -15 -138 -8 -65 -15 -123 -15 -127 0 -4 -263 -8 -585
-8 -322 0 -585 3 -585 6 0 18 31 261 35 272 3 9 129 12 585 12 546 0 580 -1
580 -17z m2305 -16 c95 -31 156 -68 209 -127 49 -55 73 -110 85 -195 34 -236
-92 -473 -306 -578 l-41 -20 44 -41 c42 -38 55 -63 170 -340 68 -165 124 -303
124 -308 0 -4 -79 -8 -175 -8 -183 0 -223 7 -256 46 -9 11 -56 127 -104 259
-103 282 -108 293 -141 305 -37 14 -124 12 -129 -2 -3 -7 -21 -143 -41 -303
-19 -159 -38 -293 -40 -297 -7 -10 -351 -10 -357 0 -5 7 1 65 28 272 8 63 24
192 35 285 22 182 39 325 95 775 19 157 35 291 35 298 0 11 61 13 343 10 338
-4 343 -5 422 -31z m-2645 -659 c0 -13 -7 -68 -15 -122 -8 -55 -15 -112 -15
-127 0 -15 -7 -29 -16 -33 -9 -3 -155 -6 -326 -6 l-311 0 6 63 c3 34 11 104
18 155 l12 92 323 0 324 0 0 -22z m173 -666 c7 -10 -26 -264 -36 -279 -6 -10
-134 -13 -581 -13 -315 0 -575 2 -578 5 -5 5 4 84 23 218 l11 77 579 0 c318 0
580 -3 582 -8z"/>
<path d="M5775 3106 c-72 -32 -108 -105 -109 -221 -1 -127 38 -175 143 -175
64 0 89 10 129 51 39 40 62 111 62 191 0 75 -20 122 -62 148 -39 23 -117 26
-163 6z"/>
<path d="M5660 2413 c-43 -23 -59 -39 -80 -78 -23 -45 -25 -61 -25 -166 0
-103 3 -121 21 -145 33 -45 70 -67 122 -72 147 -14 243 99 245 289 1 138 -42
191 -161 197 -58 3 -74 0 -122 -25z"/>
<path d="M3005 3089 c-2 -8 -16 -108 -30 -224 -14 -115 -27 -227 -30 -247 l-5
-38 93 0 c203 0 297 70 326 242 21 121 -18 211 -108 251 -59 26 -238 38 -246
16z"/>
<path d="M7026 3074 c-6 -29 -42 -329 -53 -436 l-6 -58 95 0 c161 0 242 40
293 145 20 39 28 75 32 132 4 71 2 83 -24 133 -40 78 -90 102 -228 108 l-103
5 -6 -29z"/>
</g>
</svg>

